<svg width="100%" height="25%" viewBox="0 0 1080 540" fill="none" xmlns="http://www.w3.org/2000/svg">
<path d="M0 0H1080V374.238L0 534V0Z" fill="#BDD2B6"/>
<path d="M170.984 230C172.234 230 173.406 229.857 174.5 229.57C175.594 229.258 176.609 228.867 177.547 228.398C178.484 227.93 179.331 227.396 180.086 226.797C180.867 226.198 181.544 225.599 182.117 225H188.641V245H140.984V228.047L145.984 227.07V202.93L140.984 201.953V185H175.984V201.953L170.984 202.93V230Z" fill="#F8EDE3"/>
<path d="M221.922 214.18L232.742 211.875V223.008L221.922 220.664V229.297C223.484 229.297 224.995 229.193 226.453 228.984C227.911 228.75 229.266 228.438 230.516 228.047C231.766 227.656 232.911 227.201 233.953 226.68C234.995 226.159 235.893 225.599 236.648 225H242V245H193.719V229.414L198.406 228.516V206.367L193.719 205.469V190H242V210H236.648C235.893 209.427 234.995 208.88 233.953 208.359C232.911 207.839 231.766 207.383 230.516 206.992C229.266 206.602 227.911 206.289 226.453 206.055C224.995 205.82 223.484 205.703 221.922 205.703V214.18Z" fill="#F8EDE3"/>
<path d="M260.945 204.531C259.591 204.531 258.393 204.714 257.352 205.078C256.31 205.443 255.438 205.898 254.734 206.445C254.031 206.992 253.497 207.591 253.133 208.242C252.768 208.867 252.586 209.453 252.586 210H246.062V190H299.344V210H292.82C292.82 209.453 292.638 208.867 292.273 208.242C291.909 207.591 291.375 206.992 290.672 206.445C289.969 205.898 289.096 205.443 288.055 205.078C287.013 204.714 285.815 204.531 284.461 204.531V228.516L289.148 229.414V245H256.258V229.414L260.945 228.516V204.531Z" fill="#F8EDE3"/>
<path d="M317.352 204.531C315.997 204.531 314.799 204.714 313.758 205.078C312.716 205.443 311.844 205.898 311.141 206.445C310.438 206.992 309.904 207.591 309.539 208.242C309.174 208.867 308.992 209.453 308.992 210H302.469V190H355.75V210H349.227C349.227 209.453 349.044 208.867 348.68 208.242C348.315 207.591 347.781 206.992 347.078 206.445C346.375 205.898 345.503 205.443 344.461 205.078C343.419 204.714 342.221 204.531 340.867 204.531V228.516L345.555 229.414V245H312.664V229.414L317.352 228.516V204.531Z" fill="#F8EDE3"/>
<path d="M421.766 206.289C421.74 207.07 421.727 207.839 421.727 208.594C421.727 209.323 421.727 210.026 421.727 210.703V216.758C421.727 221.966 421.01 226.432 419.578 230.156C418.146 233.854 416.206 236.888 413.758 239.258C411.31 241.628 408.432 243.294 405.125 244.258C401.844 245.221 398.354 245.703 394.656 245.703C390.385 245.703 386.388 245.221 382.664 244.258C378.966 243.294 375.737 241.628 372.977 239.258C370.242 236.862 368.081 233.815 366.492 230.117C364.93 226.419 364.148 221.966 364.148 216.758V206.289L359.461 205.391V190H389.969V205.391L385.281 206.289V210.938C385.281 211.562 385.281 212.201 385.281 212.852C385.281 213.477 385.281 214.062 385.281 214.609C385.307 215.156 385.32 215.638 385.32 216.055C385.32 216.445 385.32 216.706 385.32 216.836C385.32 217.435 385.333 218.138 385.359 218.945C385.385 219.727 385.49 220.547 385.672 221.406C385.854 222.24 386.128 223.073 386.492 223.906C386.883 224.714 387.417 225.443 388.094 226.094C388.797 226.745 389.669 227.279 390.711 227.695C391.779 228.086 393.094 228.281 394.656 228.281C396.219 228.281 397.534 228.086 398.602 227.695C399.695 227.279 400.581 226.745 401.258 226.094C401.961 225.417 402.508 224.661 402.898 223.828C403.289 222.995 403.562 222.161 403.719 221.328C403.901 220.469 404.005 219.648 404.031 218.867C404.083 218.06 404.109 217.357 404.109 216.758C404.109 216.576 404.109 216.289 404.109 215.898C404.109 215.482 404.096 215.013 404.07 214.492C404.07 213.945 404.07 213.372 404.07 212.773C404.07 212.148 404.07 211.536 404.07 210.938V206.289L399.383 205.391V190H426.492V205.391L421.766 206.289Z" fill="#F8EDE3"/>
<path d="M454.031 216.758C454.031 220.898 455.086 223.919 457.195 225.82C459.305 227.695 462.299 228.633 466.18 228.633C468.471 228.633 471.154 228.346 474.227 227.773C477.326 227.201 480.815 226.328 484.695 225.156V242.148C476.883 244.518 469.37 245.703 462.156 245.703C457.677 245.703 453.51 245.182 449.656 244.141C445.802 243.073 442.456 241.328 439.617 238.906C436.779 236.484 434.539 233.438 432.898 229.766C431.284 226.068 430.477 221.732 430.477 216.758C430.477 211.836 431.219 207.604 432.703 204.062C434.214 200.495 436.336 197.565 439.07 195.273C441.831 192.956 445.138 191.25 448.992 190.156C452.846 189.062 457.143 188.516 461.883 188.516C464.773 188.516 467.378 188.659 469.695 188.945C472.039 189.232 474.135 189.596 475.984 190.039C477.859 190.482 479.5 190.977 480.906 191.523C482.339 192.044 483.602 192.552 484.695 193.047V210.039H473.641C472.391 208.32 471.01 207.057 469.5 206.25C467.99 205.417 466.414 205 464.773 205C463.419 205 462.091 205.26 460.789 205.781C459.513 206.302 458.367 207.07 457.352 208.086C456.362 209.076 455.555 210.299 454.93 211.758C454.331 213.216 454.031 214.883 454.031 216.758Z" fill="#F8EDE3"/>
<path d="M520.125 214.18L530.945 211.875V223.008L520.125 220.664V229.297C521.688 229.297 523.198 229.193 524.656 228.984C526.115 228.75 527.469 228.438 528.719 228.047C529.969 227.656 531.115 227.201 532.156 226.68C533.198 226.159 534.096 225.599 534.852 225H540.203V245H491.922V229.414L496.609 228.516V206.367L491.922 205.469V190H540.203V210H534.852C534.096 209.427 533.198 208.88 532.156 208.359C531.115 207.839 529.969 207.383 528.719 206.992C527.469 206.602 526.115 206.289 524.656 206.055C523.198 205.82 521.688 205.703 520.125 205.703V214.18Z" fill="#F8EDE3"/>
<path d="M594.734 214.297C594.734 216.536 595.021 218.464 595.594 220.078C596.167 221.693 597 223.021 598.094 224.062C599.214 225.104 600.568 225.872 602.156 226.367C603.771 226.862 605.607 227.109 607.664 227.109C610.112 227.109 613.003 226.81 616.336 226.211C619.669 225.612 623.354 224.688 627.391 223.438V241.719C623.198 243.125 619.109 244.141 615.125 244.766C611.167 245.391 607.26 245.703 603.406 245.703C598.693 245.703 594.279 245.117 590.164 243.945C586.076 242.773 582.508 240.885 579.461 238.281C576.44 235.651 574.057 232.344 572.312 228.359C570.568 224.375 569.695 219.688 569.695 214.297C569.695 209.036 570.49 204.505 572.078 200.703C573.693 196.901 575.958 193.776 578.875 191.328C581.818 188.854 585.333 187.031 589.422 185.859C593.536 184.688 598.094 184.102 603.094 184.102C606.167 184.102 608.927 184.258 611.375 184.57C613.849 184.883 616.076 185.273 618.055 185.742C620.034 186.211 621.779 186.745 623.289 187.344C624.826 187.917 626.193 188.477 627.391 189.023V206.992H615.633C614.305 205.117 612.82 203.737 611.18 202.852C609.565 201.966 607.898 201.523 606.18 201.523C604.721 201.523 603.302 201.81 601.922 202.383C600.568 202.956 599.357 203.789 598.289 204.883C597.221 205.977 596.362 207.318 595.711 208.906C595.06 210.469 594.734 212.266 594.734 214.297Z" fill="#F8EDE3"/>
<path d="M634.812 190H667.703V205.469L663.016 206.367V212.812H681.805V206.367L677.117 205.469V189.805H710.008V205.469L705.32 206.367V228.516L710.008 229.414V245H677.117V229.414L681.805 228.516V221.992H663.016V228.516L667.703 229.414V245H634.812V229.414L639.5 228.516V206.367L634.812 205.469V190Z" fill="#F8EDE3"/>
<path d="M745.75 214.18L756.57 211.875V223.008L745.75 220.664V229.297C747.312 229.297 748.823 229.193 750.281 228.984C751.74 228.75 753.094 228.438 754.344 228.047C755.594 227.656 756.74 227.201 757.781 226.68C758.823 226.159 759.721 225.599 760.477 225H765.828V245H717.547V229.414L722.234 228.516V206.367L717.547 205.469V190H765.828V210H760.477C759.721 209.427 758.823 208.88 757.781 208.359C756.74 207.839 755.594 207.383 754.344 206.992C753.094 206.602 751.74 206.289 750.281 206.055C748.823 205.82 747.312 205.703 745.75 205.703V214.18Z" fill="#F8EDE3"/>
<path d="M794.266 216.758C794.266 220.898 795.32 223.919 797.43 225.82C799.539 227.695 802.534 228.633 806.414 228.633C808.706 228.633 811.388 228.346 814.461 227.773C817.56 227.201 821.049 226.328 824.93 225.156V242.148C817.117 244.518 809.604 245.703 802.391 245.703C797.911 245.703 793.745 245.182 789.891 244.141C786.036 243.073 782.69 241.328 779.852 238.906C777.013 236.484 774.773 233.438 773.133 229.766C771.518 226.068 770.711 221.732 770.711 216.758C770.711 211.836 771.453 207.604 772.938 204.062C774.448 200.495 776.57 197.565 779.305 195.273C782.065 192.956 785.372 191.25 789.227 190.156C793.081 189.062 797.378 188.516 802.117 188.516C805.008 188.516 807.612 188.659 809.93 188.945C812.273 189.232 814.37 189.596 816.219 190.039C818.094 190.482 819.734 190.977 821.141 191.523C822.573 192.044 823.836 192.552 824.93 193.047V210.039H813.875C812.625 208.32 811.245 207.057 809.734 206.25C808.224 205.417 806.648 205 805.008 205C803.654 205 802.326 205.26 801.023 205.781C799.747 206.302 798.602 207.07 797.586 208.086C796.596 209.076 795.789 210.299 795.164 211.758C794.565 213.216 794.266 214.883 794.266 216.758Z" fill="#F8EDE3"/>
<path d="M897.156 245H870.789L860.398 221.953V245H832.195V229.414L836.883 228.516V206.289L832.195 205.391V190H860.398V211.953L870.789 190H896.102V199.922C894.565 201.224 893.133 202.591 891.805 204.023C890.503 205.456 889.279 206.901 888.133 208.359C886.987 209.818 885.932 211.25 884.969 212.656C884.005 214.062 883.133 215.404 882.352 216.68C883.367 218.294 884.448 219.987 885.594 221.758C886.74 223.503 887.924 225.26 889.148 227.031C890.398 228.802 891.688 230.547 893.016 232.266C894.37 233.958 895.75 235.547 897.156 237.031V245Z" fill="#F8EDE3"/>
</svg>
